<svg width="96" height="48" viewBox="0 0 150 75" fill="none" xmlns="http://www.w3.org/2000/svg">
<path d="M42.5524 31.2532V27.5077C42.5524 27.0456 42.1807 26.6726 41.7201 26.6726L18.0763 26.6645H17.5834C17.5591 26.6645 17.5187 26.6645 17.4864 26.6645C17.4541 26.6645 17.4298 26.6645 17.3894 26.6645C17.3571 26.6645 17.3167 26.6645 17.2844 26.6645C17.2117 26.6645 17.1389 26.6645 17.05 26.6645C17.0016 26.6645 16.945 26.6645 16.8965 26.6645C16.8076 26.6645 16.7026 26.6645 16.5975 26.6645C16.5329 26.6645 16.4682 26.6645 16.3955 26.6726C16.2824 26.6726 16.1612 26.6808 16.04 26.6889C15.9592 26.6889 15.8864 26.697 15.8056 26.7051C15.6683 26.7132 15.5309 26.7213 15.3854 26.7375C15.3046 26.7456 15.2238 26.7537 15.1349 26.7618C14.9653 26.778 14.7956 26.8024 14.6178 26.8267C14.5451 26.8348 14.4723 26.8429 14.3996 26.851C13.8825 26.924 13.333 27.0294 12.7673 27.1672C12.6946 27.1834 12.6138 27.2077 12.5411 27.232C12.331 27.2888 12.1209 27.3455 11.9027 27.4185C11.8057 27.4509 11.7088 27.4834 11.6118 27.5158C11.4179 27.5807 11.2239 27.6536 11.03 27.7266C10.925 27.7671 10.8199 27.8158 10.7068 27.8563C10.5209 27.9374 10.327 28.0266 10.1411 28.1157C10.0361 28.1644 9.93105 28.2211 9.826 28.2779C9.63206 28.3752 9.44621 28.4887 9.26036 28.6022C9.16339 28.6589 9.06642 28.7157 8.96946 28.7805C8.75936 28.9183 8.55735 29.0643 8.35533 29.2183C8.28261 29.2751 8.20988 29.3237 8.13715 29.3805C7.29677 30.0534 6.52912 30.8884 5.89883 31.9342L5.90691 29.5264C5.90691 29.5183 5.90691 29.5183 5.90691 29.5102L5.91499 27.1185C5.91499 26.6564 5.54329 26.2754 5.07461 26.2754L0.832301 26.2916C0.371707 26.2835 0 26.6564 0 27.1104L0.121209 53.4914C0.129289 53.9454 0.500997 54.3183 0.95351 54.3183L5.21198 54.3021C5.67257 54.3021 6.04428 53.9292 6.04428 53.467C6.04428 51.3997 6.04428 46.0814 6.05236 44.9626C6.10893 40.5279 7.31293 37.9012 9.72903 35.2258C11.7896 32.9395 14.2461 32.1856 17.3975 32.0964H17.6965H41.7282C42.1807 32.0883 42.5524 31.7153 42.5524 31.2532Z" fill="white"/>
<path d="M115.593 14.8848C113.637 14.8848 112.24 16.3441 112.24 18.4033C112.24 20.4139 113.646 21.8732 115.593 21.8732C117.548 21.8732 118.946 20.4139 118.946 18.4033C118.946 16.3441 117.548 14.8848 115.593 14.8848Z" fill="white"/>
<path d="M19.5712 49.0245C19.1995 49.0245 18.9005 49.3245 18.9086 49.6974L18.9248 53.6213C18.9248 53.9942 19.2238 54.2942 19.5955 54.2861L42.1726 54.1807C42.5443 54.1807 42.8433 53.8807 42.8352 53.5078L42.8191 49.5839C42.8191 49.211 42.5201 48.911 42.1484 48.9191L19.5712 49.0245Z" fill="white"/>
<path d="M33.4132 43.1141C33.793 43.1141 34.1001 42.798 34.1001 42.4169L34.0839 38.5417C34.0839 38.1606 33.7688 37.8525 33.389 37.8525L19.547 37.9174C19.1672 37.9174 18.8601 38.2336 18.8601 38.6146L18.8763 42.4899C18.8763 42.8709 19.1914 43.179 19.5712 43.179L33.4132 43.1141Z" fill="white"/>
<path d="M113.694 53.7672L117.621 53.751C118.154 53.751 118.591 53.3132 118.583 52.77L118.47 27.3863C118.47 26.8512 118.033 26.4134 117.5 26.4215L113.573 26.4377C113.039 26.4377 112.603 26.8755 112.611 27.4106L112.724 52.7943C112.716 53.3375 113.153 53.7753 113.694 53.7672Z" fill="white"/>
<path d="M65.5093 27.6377C65.9052 27.8404 66.2931 28.0674 66.6648 28.3187C66.2931 28.0674 65.9133 27.8485 65.5093 27.6377Z" fill="white"/>
<path d="M59.5134 26.1699C59.6508 26.178 59.7882 26.1861 59.9175 26.1942C59.7882 26.1861 59.6508 26.178 59.5134 26.1699Z" fill="white"/>
<path d="M62.5356 26.5591C62.5518 26.5672 62.576 26.5672 62.5922 26.5753C62.875 26.6402 63.1579 26.7212 63.4326 26.8104C63.1417 26.7131 62.8427 26.632 62.5356 26.5591Z" fill="white"/>
<path d="M59.5621 49.3325C54.6168 49.3568 51.1017 45.6032 51.0775 40.4389C51.0533 35.2259 54.5845 31.3831 59.4813 31.3588C64.4266 31.3345 67.8932 35.0395 67.9174 40.3578C67.9336 45.5221 64.4994 49.3082 59.5621 49.3325ZM73.8405 40.7389C73.8405 40.6821 73.8405 40.601 73.8405 40.4956C73.8405 40.3497 73.8405 40.1551 73.8405 39.9281C73.8405 39.8227 73.8405 39.7173 73.8405 39.6038C73.8405 39.7173 73.8405 39.8227 73.8405 39.92C73.8405 39.8227 73.8405 39.7173 73.8405 39.6038C73.8405 39.3687 73.8405 39.1093 73.8324 38.8174C73.8324 38.3067 73.8244 37.723 73.8244 37.0744C73.8244 36.7339 73.8163 36.3772 73.8163 36.0042C73.8082 35.0881 73.8082 34.0828 73.8001 33.0289C73.8001 32.737 73.8001 32.437 73.792 32.1371C73.792 31.7804 73.792 31.4236 73.784 31.0669C73.784 30.8805 73.784 30.694 73.784 30.5075C73.784 29.9319 73.7759 29.3563 73.7759 28.7726C73.7759 28.0267 73.7678 27.2809 73.7678 26.5431C73.7678 26.0323 73.7597 25.5297 73.7597 25.0351C73.7597 24.6622 73.7516 24.2893 73.7516 23.9245C73.7516 23.6245 73.7516 23.3326 73.7436 23.0489C73.7436 22.5949 73.7355 22.149 73.7355 21.7112C73.7355 22.1409 73.7436 22.5868 73.7436 23.0489C73.7436 22.5868 73.7355 22.1409 73.7355 21.7031C73.7355 21.2734 73.7274 20.8599 73.7274 20.4627C73.7274 20.1222 73.7274 19.806 73.7193 19.4898C73.7193 19.4817 73.7193 19.4736 73.7193 19.4655C73.7193 19.3277 73.7193 19.1898 73.7193 19.0601C73.7193 18.8412 73.7193 18.6304 73.7193 18.4278C73.7193 17.6738 73.7112 17.0414 73.7112 16.5712C73.7112 16.5226 73.7112 16.4658 73.7112 16.4172C73.7112 15.9875 73.3638 15.647 72.9355 15.647H72.2002L68.5639 15.6632C68.1356 15.6632 67.7882 16.0118 67.7962 16.4415C67.7962 16.5144 67.7962 16.6036 67.7962 16.6847C67.7962 16.8225 67.7962 16.9766 67.7962 17.1387V16.6928C67.7962 16.8306 67.7962 16.9766 67.7962 17.1387V17.5197C67.7962 17.6657 67.7962 17.8197 67.8043 17.9819L67.8124 18.8818C67.8124 19.1412 67.8124 19.4087 67.8205 19.6844L67.8286 20.6248C67.8286 20.9167 67.8366 21.2166 67.8366 21.5166L67.8447 22.6111C67.8447 22.8705 67.8528 23.1299 67.8528 23.3894L67.8609 24.573C67.8609 24.7919 67.8609 25.0108 67.869 25.2216L67.877 26.2756C67.877 26.5026 67.877 26.7215 67.8851 26.9322L67.8932 27.597C67.9013 28.651 67.9094 29.3401 67.9094 29.3401C67.5296 28.9672 67.1094 28.6266 66.665 28.3186C66.3013 28.0673 65.9135 27.8402 65.5094 27.6376C65.4448 27.6051 65.3721 27.5646 65.3074 27.5322C64.9115 27.3376 64.4994 27.1673 64.0792 27.0133C64.0064 26.989 63.9256 26.9647 63.8529 26.9322C63.7398 26.8917 63.6267 26.8593 63.5216 26.8268C63.2145 26.7296 62.9075 26.6404 62.5923 26.5674C62.5762 26.5593 62.5519 26.5593 62.5358 26.5512C62.4873 26.5431 62.4307 26.5269 62.3822 26.5188C61.9297 26.4215 61.4691 26.3404 61.0085 26.2756C60.9762 26.2674 60.952 26.2674 60.9197 26.2593C60.5883 26.2188 60.257 26.1945 59.9338 26.1783H59.9257C59.7884 26.1702 59.651 26.1621 59.5217 26.1539C59.449 26.1539 59.3763 26.1458 59.2955 26.1458C58.8429 26.1377 58.3985 26.1458 57.9541 26.1783C57.8733 26.1864 57.7925 26.1864 57.7117 26.1945C57.2672 26.2269 56.8309 26.2756 56.4026 26.3485C56.338 26.3566 56.2814 26.3728 56.2167 26.3809C55.7723 26.462 55.336 26.5512 54.9158 26.6728C48.6452 28.4321 45.1302 33.8234 45.1544 40.2362C45.1948 48.6029 51.0533 54.7481 58.8753 54.7481C62.8267 54.7481 66.4549 53.6212 69.5093 50.9783C72.4587 48.4326 73.8405 44.7114 73.8405 40.8524C73.8405 40.8686 73.8405 40.8118 73.8405 40.7389Z" fill="white"/>
<path d="M98.0256 27.6377C98.4216 27.8404 98.8095 28.0674 99.1812 28.3187C98.8175 28.0674 98.4297 27.8485 98.0256 27.6377Z" fill="white"/>
<path d="M92.0782 49.3327C87.1329 49.357 83.6179 45.6034 83.5936 40.4391C83.5694 35.2261 87.1006 31.3833 91.9974 31.359C96.9428 31.3347 100.409 35.0397 100.434 40.358C100.45 45.5223 97.0236 49.3084 92.0782 49.3327ZM106.365 40.8688C106.365 40.8688 106.365 40.812 106.365 40.7309C106.365 40.6742 106.365 40.5931 106.365 40.4877C106.365 40.2769 106.365 39.977 106.357 39.5959C106.357 39.3608 106.357 39.1014 106.349 38.8095C106.349 38.5744 106.349 38.3231 106.349 38.0556C106.349 38.088 106.349 38.1123 106.349 38.1447C106.349 38.1123 106.349 38.088 106.349 38.0556C106.349 37.7475 106.349 37.4232 106.34 37.0746C106.34 36.7341 106.332 36.3774 106.332 36.0044C106.324 35.0883 106.324 34.083 106.316 33.0291C106.316 32.7372 106.316 32.4372 106.308 32.1373C106.308 31.7806 106.308 31.4238 106.3 31.0671C106.3 30.8807 106.3 30.6942 106.3 30.5077C106.3 29.9321 106.292 29.3484 106.292 28.7728C106.292 28.0269 106.284 27.281 106.284 26.5433C106.284 26.0325 106.276 25.5299 106.276 25.0353C106.276 24.6624 106.276 24.2895 106.268 23.9247C106.268 23.6247 106.268 23.3328 106.26 23.0491C106.252 22.133 106.252 21.2655 106.244 20.4629C106.244 19.9683 106.235 19.5062 106.235 19.0684C106.227 18.1523 106.227 17.3902 106.227 16.8146C106.227 16.6768 106.227 16.539 106.227 16.4255C106.227 16.539 106.227 16.6768 106.227 16.8065C106.227 16.6687 106.227 16.539 106.227 16.4255C106.227 15.9958 105.88 15.6553 105.452 15.6553L104.716 15.6634L101.08 15.6796C100.652 15.6796 100.304 16.0282 100.312 16.4579C100.312 16.4741 100.312 16.4984 100.312 16.5146V16.4579C100.312 16.6606 100.312 16.8957 100.32 17.1632V17.0578C100.32 17.0984 100.32 17.1308 100.32 17.1632V17.5443C100.32 17.6902 100.32 17.8442 100.32 18.0064L100.329 18.9063C100.329 19.1657 100.337 19.4332 100.337 19.7089L100.345 20.6493C100.345 20.9412 100.353 21.2412 100.353 21.5411L100.361 22.6356C100.361 22.895 100.369 23.1545 100.369 23.4139L100.377 24.5976C100.377 24.8164 100.377 25.0353 100.385 25.2461L100.393 26.3001C100.393 26.5271 100.393 26.746 100.401 26.9568L100.409 27.6215C100.417 28.6755 100.426 29.3646 100.426 29.3646C100.046 28.9836 99.6255 28.6512 99.1811 28.3431C98.8175 28.0918 98.4296 27.8648 98.0256 27.6621C97.9609 27.6297 97.8882 27.5891 97.8236 27.5567C97.4276 27.3621 97.0155 27.1919 96.5953 27.0378C96.5226 27.0135 96.4418 26.9811 96.369 26.9568C95.9408 26.8108 95.4963 26.6811 95.0519 26.5757C95.0034 26.5595 94.9469 26.5514 94.8984 26.5433C94.4459 26.446 93.9853 26.3649 93.5247 26.3001C93.4924 26.3001 93.4681 26.292 93.4358 26.2839C92.9671 26.2271 92.4984 26.1947 92.0298 26.1785C91.957 26.1785 91.8843 26.1704 91.8116 26.1704C91.3591 26.1622 90.9146 26.1704 90.4702 26.2028C90.3894 26.2109 90.3086 26.2109 90.2278 26.219C90.2116 26.219 90.1955 26.219 90.1874 26.2271C89.9046 26.2514 89.6218 26.2839 89.3389 26.3163C89.2016 26.3325 89.0561 26.3487 88.9187 26.373C88.8541 26.3811 88.7975 26.3974 88.7329 26.4055C88.7006 26.4136 88.6763 26.4136 88.644 26.4217C88.4258 26.4622 88.2157 26.5028 88.0056 26.5514C87.8117 26.5919 87.6178 26.6406 87.4238 26.6973C81.1533 28.4566 77.6382 33.8479 77.6625 40.2607C77.7029 48.6274 83.5613 54.7727 91.3833 54.7727C95.3347 54.7727 98.9629 53.6458 102.017 51.0028C104.975 48.449 106.365 44.7359 106.365 40.8688Z" fill="white"/>
<path d="M89.5732 26.2753C89.7753 26.251 89.9773 26.2348 90.1874 26.2186C90.2035 26.2186 90.2197 26.2104 90.2278 26.2104C90.0096 26.2267 89.7914 26.251 89.5732 26.2753Z" fill="white"/>
<path d="M88.1189 26.5186C88.2967 26.478 88.4744 26.4456 88.6522 26.4132C88.6845 26.4051 88.7088 26.397 88.7411 26.397C88.531 26.4375 88.3209 26.478 88.1189 26.5186Z" fill="white"/>
<path d="M27.0699 67.3303C27.183 66.5196 27.4982 65.8791 28.0557 65.3765C28.6133 64.8738 29.3244 64.6306 30.1648 64.6225C30.8839 64.6144 31.5142 64.8576 32.0799 65.3197C32.6132 65.7818 32.9526 66.4466 33.0657 67.2979L27.0699 67.3303ZM30.1567 63.5929C28.9365 63.601 27.9184 64.0064 27.1346 64.8171C26.3507 65.6116 25.9709 66.6331 25.9709 67.8411C25.979 69.0653 26.3831 70.0787 27.175 70.8732C27.9669 71.6596 29.0012 72.0568 30.2698 72.0568C31.8617 72.0487 33.0495 71.4326 33.801 70.1841L32.8637 69.6409C32.3708 70.5651 31.5062 71.0191 30.2779 71.0272C29.4133 71.0272 28.686 70.7921 28.1042 70.3138C27.5224 69.8355 27.183 69.1869 27.0699 68.3843L34.1323 68.3518C34.1485 68.0762 34.1566 67.8978 34.1566 67.8492C34.1485 66.7061 33.7768 65.7008 33.0334 64.8657C32.3142 63.9983 31.3607 63.5848 30.1567 63.5929Z" fill="white"/>
<path d="M37.2677 67.282C37.3727 66.4713 37.6959 65.8308 38.2535 65.3281C38.8111 64.8255 39.5221 64.5823 40.3544 64.5742C41.0817 64.5742 41.7039 64.8093 42.2695 65.2795C42.8029 65.7416 43.1422 66.4064 43.2554 67.2577L37.2677 67.282ZM40.3544 63.5446C39.1343 63.5527 38.1242 63.958 37.3323 64.7687C36.5485 65.5633 36.1687 66.5848 36.1687 67.7927C36.1768 69.0169 36.5808 70.0303 37.3727 70.8167C38.1646 71.6031 39.1989 72.0004 40.4676 72.0004C42.0595 71.9923 43.2473 71.3761 43.9988 70.1276L43.0614 69.5844C42.5685 70.5087 41.7039 70.9627 40.4757 70.9708C39.603 70.9789 38.8838 70.7357 38.302 70.2573C37.7202 69.779 37.3808 69.1304 37.2596 68.3278L44.322 68.2954C44.3382 68.0197 44.3543 67.8414 44.3543 67.7927C44.3463 66.6496 43.9745 65.6443 43.2311 64.8093C42.52 63.9499 41.5665 63.5364 40.3544 63.5446Z" fill="white"/>
<path d="M53.3562 69.9896C52.7501 70.6058 51.9906 70.9138 51.1098 70.922C50.229 70.9301 49.4694 70.622 48.8553 70.0139C48.2412 69.3897 47.9341 68.6276 47.926 67.7439C47.926 66.8602 48.225 66.0981 48.8311 65.482C49.4371 64.8496 50.1967 64.5416 51.0775 64.5335C51.9663 64.5253 52.7178 64.8334 53.3319 65.4577C53.9461 66.0657 54.2531 66.8278 54.2612 67.7115C54.2693 68.5952 53.9622 69.3573 53.3562 69.9896ZM51.1583 63.4957C49.728 63.5038 48.6533 64.1038 47.918 65.2874L47.9099 63.7065L46.8513 63.7146L46.8998 75.008L47.9584 74.9999L47.9341 70.1923C48.6775 71.3679 49.7603 71.9597 51.1906 71.9516C52.338 71.9435 53.3158 71.5381 54.1158 70.7112C54.9319 69.8842 55.3279 68.8789 55.3198 67.7034C55.3117 66.5278 54.9077 65.5225 54.0834 64.7037C53.2835 63.8849 52.2976 63.4876 51.1583 63.4957Z" fill="white"/>
<path d="M65.9296 70.379L62.8752 63.6338L61.752 63.6419L65.3882 71.741L65.1781 72.2437C64.6852 73.4922 63.9499 74.0435 62.9802 73.93L62.9883 74.9272C63.6751 74.9758 64.3216 74.7731 64.8953 74.3191C65.4529 73.8813 65.9054 73.249 66.2205 72.422L69.6225 63.5933L68.4992 63.6014L65.9296 70.379Z" fill="white"/>
<path d="M77.4283 69.8763C76.8222 70.4925 76.0627 70.8006 75.1819 70.8087C74.3011 70.8087 73.5415 70.5087 72.9274 69.9007C72.3133 69.2764 72.0062 68.5143 71.9981 67.6306C71.99 66.7469 72.2971 65.9849 72.9032 65.3687C73.5092 64.7363 74.2688 64.4283 75.1496 64.4202C76.0303 64.4121 76.7899 64.7201 77.404 65.3444C78.0182 65.9524 78.3252 66.7145 78.3333 67.5982C78.3414 68.4819 78.0343 69.244 77.4283 69.8763ZM75.1415 63.3824C73.9536 63.3906 72.9597 63.7959 72.1436 64.6228C71.3274 65.4336 70.9315 66.4389 70.9396 67.6306C70.9477 68.8224 71.3517 69.8196 72.1759 70.6465C73.0001 71.4491 74.0183 71.8464 75.19 71.8464C76.3697 71.8383 77.3556 71.4329 78.1798 70.6222C78.9959 69.7953 79.408 68.7737 79.4 67.5982C79.3919 66.4064 78.9717 65.4093 78.1475 64.5985C77.3152 63.7797 76.3212 63.3743 75.1415 63.3824Z" fill="white"/>
<path d="M87.618 63.5203L87.6341 67.7523C87.6422 68.7333 87.3998 69.4953 86.923 70.0304C86.4786 70.5169 85.8483 70.7601 85.0402 70.7682C84.3453 70.7682 83.8039 70.5817 83.416 70.1764C83.0443 69.771 82.8504 69.2278 82.8423 68.4982L82.8181 63.5446L81.7595 63.5527L81.7838 68.5063C81.7918 69.5197 82.0827 70.3142 82.6484 70.906C83.214 71.4978 83.9898 71.8059 84.9514 71.7978C86.1554 71.7897 87.0523 71.3033 87.6503 70.3304L87.6584 71.587L88.7169 71.5789L88.6765 63.5122L87.618 63.5203Z" fill="white"/>
<path d="M105.274 69.2279C104.377 70.1521 103.27 70.6061 101.937 70.6142C100.603 70.6223 99.4882 70.1764 98.5831 69.2603C97.6781 68.3442 97.2256 67.2173 97.2175 65.8958C97.2094 64.5743 97.6539 63.4555 98.5508 62.5313C99.4478 61.6071 100.555 61.1368 101.888 61.1287C103.221 61.1206 104.337 61.5827 105.242 62.4989C106.147 63.415 106.599 64.5257 106.607 65.8471C106.623 67.1767 106.171 68.3036 105.274 69.2279ZM101.888 60.0343C100.264 60.0424 98.8821 60.6099 97.767 61.7611C96.6438 62.8961 96.0862 64.2662 96.0943 65.9039C96.1024 67.5172 96.668 68.9036 97.7993 70.0467C98.9306 71.1736 100.312 71.733 101.937 71.7249C103.561 71.7168 104.943 71.1493 106.066 70.0143C107.189 68.863 107.747 67.4767 107.738 65.8553C107.73 64.2257 107.165 62.8556 106.033 61.7287C104.902 60.5856 103.512 60.0262 101.888 60.0343Z" fill="white"/>
<path d="M117.694 60.1556L117.734 69.3492L111.415 60.1799L110.454 60.188L110.502 71.4814L111.633 71.4733L111.585 62.2797L117.904 71.4489L118.866 71.4408L118.817 60.1475L117.694 60.1556Z" fill="white"/>
<path d="M24.9124 63.8039L23.4579 63.812L19.6519 67.3954L19.6196 60.6016L18.561 60.6097L18.6095 71.903H19.6681L19.6519 68.0116L23.6922 71.8787H25.1063L20.7751 67.6954L24.9124 63.8039Z" fill="white"/>
<path d="M149.984 9.03125C142.259 14.8522 133.338 19.2301 123.641 21.7434L141.976 21.6623C146.428 21.638 150.024 18.0789 150 13.7091L149.984 9.03125Z" fill="white"/>
<path d="M135.689 7.35326L135.713 11.942C135.713 12.5986 136.376 13.0364 136.966 12.7851C137.031 12.7527 137.095 12.7202 137.16 12.6878C137.095 12.7202 137.031 12.7527 136.966 12.7851C136.982 12.777 137.006 12.777 137.023 12.7689C137.103 12.7284 137.176 12.6878 137.257 12.6473C138.162 12.1933 139.051 11.7231 139.932 11.2366C140.093 11.1474 140.247 11.0502 140.408 10.961C141.2 10.5151 141.984 10.0611 142.752 9.58275L142.76 9.57464C142.865 9.50978 142.97 9.45303 143.067 9.39628C143.083 9.38007 143.107 9.37196 143.123 9.35575C143.236 9.28278 143.35 9.21792 143.463 9.14496C145.184 8.0667 146.218 6.1615 146.21 4.12658V3.61583C146.21 3.84283 146.194 4.06983 146.17 4.29683C146.194 4.06983 146.21 3.84283 146.21 3.61583V2.99968V3.51043L146.202 1.83223C146.202 1.36201 145.871 1.02151 145.475 0.940439C145.871 1.02151 146.202 1.36201 146.202 1.83223L146.21 2.99968V0C145.531 0.535077 144.828 1.04583 144.133 1.55659C144.214 1.49984 144.287 1.44309 144.368 1.38634C144.287 1.44309 144.214 1.49984 144.133 1.55659C143.851 1.75927 143.576 1.96195 143.293 2.15652C142.752 2.53756 142.21 2.90239 141.661 3.26721C141.402 3.43747 141.144 3.61582 140.885 3.77797C140.134 4.2644 139.374 4.72652 138.598 5.18052C138.542 5.21295 138.485 5.25349 138.429 5.28591C137.766 5.67506 137.087 6.04799 136.408 6.41282C136.174 6.54254 135.94 6.67225 135.697 6.79386L135.689 7.35326Z" fill="white"/>
<path d="M135.697 9.64737L135.689 7.35303L135.697 9.64737Z" fill="white"/>
<path d="M135.705 11.9418L135.697 9.64746L135.705 11.9418Z" fill="white"/>
<path d="M125.015 8.26145V7.68584V8.26145L125.031 11.2206C125.976 10.9125 126.914 10.5882 127.843 10.2477C127.94 10.2153 128.029 10.1748 128.126 10.1342C128.134 10.1342 128.134 10.1261 128.142 10.1261C128.134 10.1261 128.134 10.1342 128.126 10.1342C128.57 9.96397 129.023 9.79372 129.459 9.61536C129.936 9.42889 130.404 9.23432 130.873 9.03164C131.196 8.89382 131.511 8.74789 131.835 8.61006C132.53 8.30199 133.225 7.9777 133.903 7.6453C134.113 7.54802 134.324 7.44262 134.534 7.33723C134.897 7.15887 135.261 6.98862 135.616 6.80215L135.584 0.0488281C134.34 0.778479 133.055 1.44327 131.762 2.08374C131.859 2.0351 131.948 1.99456 132.045 1.94592C131.948 1.98646 131.859 2.0351 131.762 2.08374C131.148 2.38371 130.526 2.68368 129.903 2.97554C129.532 3.14579 129.152 3.30794 128.772 3.47008C128.174 3.72951 127.568 3.98084 126.962 4.21595C126.768 4.29702 126.574 4.37809 126.38 4.45916C125.556 4.77534 124.999 5.56175 124.999 6.44543L125.007 7.67773L125.015 8.26145Z" fill="white"/>
<path d="M128.134 10.1343C128.037 10.1667 127.948 10.2072 127.851 10.2478C127.859 10.2478 127.859 10.2478 127.867 10.2478C127.948 10.2072 128.037 10.1667 128.134 10.1343Z" fill="white"/>
<path d="M134.453 7.39366C134.485 7.37745 134.51 7.35313 134.534 7.33691C134.324 7.44231 134.114 7.5477 133.904 7.64499C134.089 7.56392 134.275 7.48284 134.453 7.39366Z" fill="white"/>
</svg>
