<svg width="66" height="24" viewBox="0 0 66 24" fill="none" xmlns="http://www.w3.org/2000/svg">
<path d="M40.707 9.05631C41.7634 8.55204 43.2957 8.25427 44.4586 8.1195C45.7323 7.96953 46.9995 9.08457 48.2732 8.93242C49.0557 8.83895 49.9077 8.83026 50.6967 8.85634C51.2945 8.87591 51.8792 9.01936 52.4225 9.26715C56.361 11.069 60.7929 11.7689 65.0944 11.282C64.9857 9.05196 64.851 9.3454 65.3226 7.16314C57.2392 8.54987 58.6367 3.46373 57.1522 5.11999C54.6504 7.91302 48.2928 4.99609 43.074 3.20508C42.7306 3.41809 43.1306 3.91801 43.4957 4.08972C45.3541 4.97436 45.5237 4.99392 47.369 5.86769C36.8968 8.36946 30.1435 7.36745 32.5279 9.0737C33.2082 8.81722 34.0233 8.96285 34.5732 9.43886C33.6212 9.50841 33.0365 10.467 32.5301 11.2755C31.6302 12.7122 30.4022 14.0599 28.7763 14.538C27.1353 15.0227 25.3812 14.5511 23.7358 14.0816C23.5359 14.0251 23.3359 13.9664 23.1338 13.9099C22.2774 13.6664 22.0166 13.4034 21.1384 13.5556C20.4864 13.6686 20.569 14.212 20.2625 14.775C20.069 15.1314 18.3259 15.2075 17.9259 15.1401C16.6218 14.9228 15.2959 14.8293 13.9744 14.8619C13.394 14.8749 12.7963 14.9184 12.2812 15.1879C11.9182 15.377 11.6161 15.6705 11.2574 15.8683C10.7466 16.1508 10.1511 16.2269 9.57074 16.2965C8.05142 16.4812 6.5321 16.666 5.01061 16.8507C4.66501 16.892 4.30419 16.9398 4.01293 17.1333C3.76949 17.2963 3.60213 17.5441 3.41956 17.7723C2.61316 18.7808 1.41119 19.459 0.135304 19.6503C-0.0451014 19.6763 -0.0451014 19.9393 0.135304 19.9676C0.922134 20.0893 2.05673 19.7111 2.60012 19.3068C3.3087 18.7787 3.59995 17.9136 4.44547 17.6506C5.06059 17.4571 5.8496 17.368 6.37777 17.2463C6.73206 17.1637 7.09506 17.1159 7.45804 17.1159C9.17298 17.1159 10.5575 16.9789 12.0725 17.2463C14.183 15.7487 17.2825 15.7944 19.0779 17.468C19.4822 17.844 20.1147 17.731 20.3625 17.2376C20.8211 16.3269 21.5558 15.5792 22.5339 15.3922C23.1946 15.2662 23.8728 15.4118 24.5336 15.5357C26.9223 15.9835 28.3221 16.2508 30.5804 16.1552C30.9195 16.14 31.2173 15.9226 31.3346 15.6053C31.8932 14.1098 34.0125 11.7841 35.1427 11.2451C37.1185 10.2996 38.7291 9.99964 40.707 9.05631Z" fill="#20233B"/>
<path d="M12.9789 15.6639C11.2748 15.2357 9.70549 14.2924 8.52959 12.9883C8.48177 13.0535 8.43395 13.1165 8.38831 13.1817C9.54682 14.162 10.7075 15.1445 11.7291 16.266C12.0029 16.0769 12.2964 15.9182 12.6028 15.7922L12.9789 15.6639Z" fill="#20233B"/>
<path d="M19.104 15.6245C18.2172 15.1615 17.4195 14.5246 16.7717 13.7617C16.8022 13.8334 16.75 13.9117 16.6935 13.9639C16.637 14.016 16.5674 14.066 16.55 14.1421C16.5261 14.2508 16.6196 14.3442 16.7022 14.4181C17.2586 14.9094 17.7433 15.481 18.1324 16.1135L19.104 15.6245Z" fill="#20233B"/>
<path d="M39.6485 9.07155C39.129 12.6014 37.5554 15.877 36.0034 19.0873C36.1969 19.1308 36.373 19.2503 36.4816 19.4155C36.7577 18.1614 37.2076 16.9485 37.8162 15.8183C38.2292 15.051 38.7161 14.3207 39.053 13.5165C39.4051 12.6797 39.5833 11.782 39.855 10.9147C40.1245 10.0475 40.5049 9.1824 41.17 8.56293C40.7157 8.55641 40.2615 8.62379 39.8289 8.7629L39.6485 9.07155Z" fill="#20233B"/>
<path d="M38.5856 8.08022C38.9964 8.31279 39.2573 8.79097 39.2268 9.26264C39.1964 9.7343 38.8791 10.1777 38.4422 10.3559C37.9075 11.158 36.612 11.2971 35.9187 10.6276C35.5644 11.0145 34.8623 10.8559 34.558 10.4298C34.2537 10.0016 34.2602 9.42348 34.3711 8.91052C34.4841 8.39756 34.6906 7.90416 34.7471 7.3825C34.1885 8.00632 33.2213 8.25845 32.4649 7.90416C31.7085 7.54987 31.2781 6.57177 31.6107 5.8045C31.9432 5.03723 33.0409 4.69815 33.706 5.20677C33.1148 4.9655 32.6757 4.38516 32.6062 3.74831C32.5366 3.11363 32.8409 2.45069 33.3669 2.0877C33.3017 1.10308 34.1146 0.1641 35.0905 0.0206449C36.0665 -0.12281 37.0815 0.496655 37.4684 1.40303C37.8553 2.30941 37.6293 3.42662 36.9707 4.16128C37.4402 3.64832 38.0162 3.18753 38.6987 3.06798C39.3833 2.94844 40.1789 3.26578 40.4179 3.92002C40.657 4.57426 40.0571 5.4263 39.379 5.27632C40.2615 5.33718 40.9527 6.31963 40.7114 7.1695C40.4723 8.01936 39.3681 8.4932 38.5856 8.08022Z" fill="#FABC29"/>
<path d="M35.7969 7.21302C35.1057 7.23258 34.4146 7.25214 33.7255 7.27388C33.8733 6.98479 34.1385 6.75874 34.4472 6.65876C34.0277 6.76092 33.5604 6.65659 33.2256 6.38272C33.1083 6.28708 32.9974 6.15015 33.0126 5.998C33.0278 5.84367 33.1626 5.73065 33.293 5.64805C33.769 5.3481 34.3428 5.20247 34.9058 5.2416C34.6102 4.91991 34.3102 4.59387 34.095 4.2135C33.8799 3.83313 33.7516 3.38537 33.8277 2.95501C33.9038 2.52464 34.2124 2.12036 34.6363 2.01385C35.0601 1.90735 35.5666 2.16818 35.6578 2.59637C35.5557 2.38119 35.6122 2.10297 35.7904 1.9443C35.9687 1.7878 36.2556 1.76824 36.4534 1.89866C36.6772 2.04646 36.762 2.3312 36.8098 2.59637C36.9685 3.48318 36.8859 4.41347 36.5729 5.25899C36.6468 4.83297 36.8837 4.43955 37.2228 4.1722C37.3728 4.05483 37.5467 3.96137 37.7358 3.9505C37.9249 3.94181 38.127 4.03527 38.2053 4.20698C38.2813 4.38087 38.1879 4.61996 38.0031 4.65908C38.1966 4.55692 38.3987 4.45477 38.6161 4.43955C38.8334 4.42651 39.0769 4.52649 39.1573 4.72864C39.2594 4.98294 39.0768 5.26333 38.8704 5.44591C38.4422 5.82628 37.8705 6.03929 37.2989 6.0306C37.7249 6.05886 38.1531 6.08711 38.5791 6.11537C38.8399 6.13276 39.166 6.20231 39.2225 6.45662C39.2638 6.64355 39.116 6.83047 38.9356 6.90003C38.7573 6.96958 38.5574 6.95219 38.3661 6.93263C38.69 7.06304 38.6987 7.58035 38.4248 7.79771C38.1509 8.01289 37.7336 7.95638 37.4489 7.75858C37.1619 7.55861 36.9772 7.2478 36.8077 6.9435C37.1685 7.49123 37.4249 8.10635 37.5597 8.74755C37.6032 8.9497 37.6314 9.1627 37.5793 9.36267C37.5271 9.56264 37.3728 9.74739 37.1685 9.78C36.9707 9.81043 36.775 9.69305 36.6577 9.53221C36.5381 9.37137 36.4816 9.17575 36.4273 8.98447C36.3686 9.2866 36.249 9.58872 36.01 9.78434C35.773 9.97779 35.397 10.0256 35.1623 9.82782C34.9471 9.64524 34.9101 9.3279 34.9319 9.04751C34.984 8.35849 35.297 7.6912 35.7969 7.21302Z" fill="#FC7935"/>
<path d="M35.3818 4.7763C34.9341 4.28942 34.6211 3.67865 34.4907 3.02876C34.6124 3.0005 34.7037 3.13309 34.7558 3.24611C34.9862 3.74821 35.1949 4.25899 35.3818 4.7763Z" fill="#FFD7BB"/>
<path d="M35.7035 3.39619C35.7883 3.82873 35.8296 4.26996 35.8252 4.71119C35.6622 4.39603 35.5514 4.0526 35.4992 3.70049C35.4753 3.53312 35.4644 3.35489 35.5448 3.20709C35.6361 3.19405 35.6861 3.30707 35.7035 3.39619Z" fill="#FFD7BB"/>
<path d="M36.2425 3.70504C36.2512 3.65505 36.2751 3.59202 36.3251 3.58984C36.3773 3.58984 36.4012 3.65288 36.4099 3.70287C36.4621 4.04195 36.399 4.39624 36.2295 4.69401C36.1839 4.36798 36.1882 4.03325 36.2425 3.70504Z" fill="#FFD7BB"/>
<path d="M37.2706 4.74835C37.3076 4.7114 37.3532 4.6701 37.4054 4.68097C37.401 4.81138 37.3076 4.92223 37.2163 5.0157C37.0707 5.16785 36.9207 5.31347 36.7642 5.45258C36.8968 5.1961 37.0685 4.95701 37.2706 4.74835Z" fill="#FFD7BB"/>
<path d="M37.7662 5.05891C37.8314 5.02631 37.9031 4.99805 37.9749 5.0024C37.9901 5.04804 37.9466 5.09151 37.9075 5.11977C37.651 5.30235 37.3749 5.46319 37.0902 5.59578C37.2728 5.36973 37.5054 5.18498 37.7662 5.05891Z" fill="#FFD7BB"/>
<path d="M37.012 5.90859C37.2641 5.80426 37.5249 5.69993 37.7988 5.69775C37.801 5.71949 37.7792 5.73688 37.7597 5.74992C37.5967 5.84773 37.4162 5.91728 37.2293 5.95423C37.1532 5.96945 37.0576 5.9738 37.012 5.90859Z" fill="#FFD7BB"/>
<path d="M36.8468 6.20898C37.2076 6.41113 37.5793 6.61544 37.9901 6.65891C38.064 6.66543 38.1422 6.66761 38.2052 6.62848C38.2139 6.59153 38.1705 6.56762 38.1335 6.55675C37.814 6.46329 37.4923 6.36765 37.1728 6.27419C37.0663 6.24376 36.9598 6.21116 36.8468 6.20898Z" fill="#FFD7BB"/>
<path d="M37.4619 6.94578C37.2467 6.76755 37.025 6.58497 36.7685 6.47412C36.9598 6.70235 37.2076 6.88275 37.4836 6.99578C37.4945 6.97839 37.4771 6.95883 37.4619 6.94578Z" fill="#FFD7BB"/>
<path d="M37.0489 7.19129C37.1033 7.23911 37.1641 7.28258 37.2359 7.2978C37.2446 7.22824 37.1967 7.16521 37.1489 7.11304C36.9924 6.94133 36.8207 6.78266 36.6338 6.64355C36.7316 6.85439 36.875 7.04132 37.0489 7.19129Z" fill="#FFD7BB"/>
<path d="M36.5642 7.68662C36.6077 7.87137 36.6534 8.06047 36.7577 8.21914C36.7816 8.25609 36.8185 8.29522 36.8598 8.28652C36.925 7.7866 36.7251 7.28886 36.4512 6.86719C36.436 7.14323 36.499 7.4171 36.5642 7.68662Z" fill="#FFD7BB"/>
<path d="M36.2012 7.00439C36.1904 6.99353 36.1773 7.01091 36.173 7.02396C36.086 7.31521 36.0317 7.61299 36.0056 7.91512C36.0034 7.94555 36.0143 7.98902 36.0447 7.9825C36.0556 7.98032 36.0643 7.97163 36.0708 7.96294C36.1099 7.9086 36.136 7.84556 36.1556 7.78253C36.2143 7.58473 36.2295 7.21088 36.2012 7.00439Z" fill="#FFD7BB"/>
<path d="M34.645 5.43701C34.5863 5.43701 34.5124 5.45005 34.5015 5.50657C34.8341 5.64133 35.2101 5.56525 35.5687 5.58481C35.271 5.49135 34.958 5.44136 34.645 5.43701Z" fill="#FFD7BB"/>
<path d="M34.3907 6.21305C34.8232 6.17176 35.2492 6.07395 35.6557 5.92397C35.2644 5.90658 34.8689 5.96309 34.4972 6.09134C34.4407 6.1109 34.3711 6.15654 34.3907 6.21305Z" fill="#FFD7BB"/>
<path d="M35.1905 6.52157C35.1036 6.57591 35.0188 6.64764 35.0014 6.74762C35.3057 6.70415 35.56 6.50636 35.81 6.32812C35.5905 6.33899 35.3753 6.40637 35.1905 6.52157Z" fill="#FFD7BB"/>
<path d="M46.6278 6.43723C47.0669 5.58084 48.3362 5.38739 49.1274 5.93296C49.9186 6.47852 50.2251 7.55661 50.0468 8.50211C50.3251 8.08044 50.8989 7.88265 51.3792 8.04132C51.8596 8.19999 52.2008 8.6999 52.1748 9.20634C52.7595 9.81712 52.8877 10.817 52.4747 11.556C52.0617 12.295 51.1423 12.7101 50.3164 12.5319C49.4904 12.3537 48.8231 11.5973 48.7514 10.7539C48.6384 11.4277 48.4667 12.1167 48.0537 12.6623C47.6407 13.2079 46.9343 13.5796 46.2692 13.4187C45.6041 13.2579 45.1281 12.4363 45.4628 11.8385C45.002 11.8863 44.5151 11.7581 44.1717 11.4451C43.8305 11.1321 43.6566 10.63 43.7826 10.1844C43.9544 9.57585 44.626 9.21504 45.2585 9.19982C45.891 9.18244 46.4974 9.43022 47.0821 9.67583C46.8235 9.29111 46.4561 8.99551 46.1105 8.68904C45.7649 8.38039 45.4258 8.04132 45.252 7.61312C45.0802 7.18276 45.1107 6.64154 45.4411 6.31768C45.7736 5.9873 46.4235 6.02207 46.6278 6.43723Z" fill="#FABC29"/>
<path d="M47.2777 8.69085C47.106 8.54305 46.8039 8.6865 46.7495 8.90821C46.6952 9.12991 46.8234 9.36031 47.0017 9.50376C47.1799 9.64722 47.3994 9.72546 47.6037 9.82328C47.8102 9.92109 48.0146 10.0537 48.1145 10.258C47.2038 10.1819 46.2909 10.1058 45.3802 10.0319C45.5497 10.2928 45.8193 10.4884 46.1214 10.5666C45.8236 10.3341 45.3259 10.634 45.3193 11.0122C45.3128 11.3904 45.6801 11.7034 46.0583 11.7295C46.4365 11.7556 46.7995 11.5578 47.0756 11.297C46.8104 11.7186 46.8495 12.3077 47.1669 12.6902C48.0015 12.0881 48.6058 11.1774 48.8383 10.1754C48.9579 10.3341 49.0057 10.5362 49.0535 10.7275C49.1013 10.9209 49.16 11.1209 49.2948 11.2665C49.4295 11.4122 49.6686 11.4839 49.8338 11.373C49.999 11.2622 49.9838 10.9492 49.7904 10.9014C49.8947 11.0687 50.0251 11.2317 50.2077 11.3122C50.3881 11.3926 50.6293 11.3622 50.7445 11.2013C50.8597 11.0405 50.7641 10.7601 50.5663 10.747C50.8054 10.9774 51.2466 10.8905 51.4249 10.6101C51.6031 10.3297 51.527 9.93413 51.2945 9.69938C51.0619 9.46246 50.7076 9.37552 50.3772 9.41247C50.5424 9.32553 50.7163 9.23424 50.8206 9.07992C50.9271 8.92559 50.938 8.69085 50.7967 8.56913C50.6185 8.41698 50.3468 8.53 50.1446 8.64738C49.7012 8.90386 49.2578 9.16034 48.8144 9.41465C49.1122 8.88647 49.297 8.25396 49.1209 7.67579C48.9666 7.16935 48.5319 6.75855 48.0167 6.63683C47.6994 6.55641 47.3733 6.47599 47.0473 6.51076C46.7213 6.54337 46.3887 6.71291 46.254 7.01068C46.117 7.30846 46.2561 7.72796 46.5713 7.81273C46.43 8.23875 46.8343 8.74301 47.2777 8.69085Z" fill="#FC7935"/>
<path d="M48.0689 9.68203C47.832 9.49945 47.5929 9.31687 47.356 9.13429C47.3364 9.11908 47.3147 9.09952 47.3125 9.07561C47.3103 9.03648 47.3538 9.01257 47.3907 9.00605C47.4885 8.99301 47.5885 9.04083 47.6581 9.11038C47.7298 9.17994 47.7754 9.26905 47.8211 9.35817C47.8667 9.44729 48.0015 9.60813 48.0689 9.68203Z" fill="#FFD7BB"/>
<path d="M47.3016 8.04125C47.2668 7.97387 47.2364 7.88475 47.2907 7.83042C47.3233 7.79781 47.3799 7.79564 47.4233 7.81303C47.4668 7.83259 47.5016 7.86737 47.532 7.90214C47.8602 8.276 48.0341 8.75635 48.1993 9.22584C47.8689 8.85634 47.5342 8.48031 47.3016 8.04125Z" fill="#FFD7BB"/>
<path d="M48.1645 7.95616C48.1645 7.9279 48.1667 7.8953 48.1906 7.88226C48.2123 7.86921 48.2406 7.87791 48.258 7.8953C48.2754 7.91269 48.2841 7.93659 48.2906 7.9605C48.4014 8.32784 48.3927 8.71908 48.3819 9.10162C48.2775 8.7256 48.1732 8.34522 48.1645 7.95616Z" fill="#FFD7BB"/>
<path d="M48.721 8.489C48.7275 8.46509 48.7405 8.43901 48.7644 8.43466C48.8014 8.42814 48.8166 8.47813 48.8188 8.51508C48.8253 8.83242 48.7231 9.15194 48.534 9.40624C48.5623 9.0976 48.6231 8.78678 48.721 8.489Z" fill="#FFD7BB"/>
<path d="M50.0142 9.33012C49.7447 9.44966 49.46 9.52574 49.1752 9.60399C49.4035 9.40619 49.686 9.27143 49.9838 9.22361C50.0186 9.21709 50.0642 9.21927 50.0751 9.25404C50.0859 9.28882 50.0468 9.31708 50.0142 9.33012Z" fill="#FFD7BB"/>
<path d="M49.4622 9.81253C49.8447 9.70385 50.2707 9.75167 50.6207 9.94295C50.1773 9.94947 49.8904 9.92773 49.4622 9.81253Z" fill="#FFD7BB"/>
<path d="M49.9816 10.393C49.7599 10.18 49.4491 10.0887 49.1818 9.93652C49.3861 10.1626 49.6404 10.3452 49.923 10.4647C49.9512 10.4777 49.9947 10.4843 50.0077 10.456C50.0186 10.4343 49.999 10.4104 49.9816 10.393Z" fill="#FFD7BB"/>
<path d="M49.4426 10.8647C49.4187 10.5647 49.2622 10.2778 49.0253 10.0952C49.1839 10.343 49.2274 10.6647 49.4426 10.8647Z" fill="#FFD7BB"/>
<path d="M48.1319 11.0386C48.3819 10.9039 48.5645 10.6518 48.6123 10.3735C48.3754 10.5257 48.2015 10.7691 48.1319 11.0386Z" fill="#FFD7BB"/>
<path d="M47.6016 10.8473C47.5407 10.8908 47.4777 10.9451 47.469 11.019C47.7689 10.8995 48.045 10.7234 48.2841 10.5039C48.0406 10.58 47.8081 10.6952 47.6016 10.8473Z" fill="#FFD7BB"/>
<path d="M47.8233 10.4104C47.5972 10.3539 47.3625 10.3257 47.1277 10.33C47.1016 10.33 47.0756 10.3322 47.0517 10.3431C47.0277 10.3561 47.0104 10.38 47.0169 10.4061C47.0256 10.4431 47.069 10.4539 47.106 10.4583C47.4146 10.4909 47.5298 10.5017 47.8233 10.4104Z" fill="#FFD7BB"/>
<path d="M29.461 12.4404C29.4241 11.8578 29.0285 11.3144 28.4873 11.0971C27.946 10.8797 27.2853 11.0015 26.8549 11.397C27.5374 10.7385 27.7113 9.61255 27.2592 8.78007C26.8049 7.9476 25.766 7.48028 24.8422 7.69764C23.9184 7.91499 23.1946 8.79529 23.1577 9.74296C22.4382 9.41258 21.5058 9.756 21.1123 10.4407C20.7189 11.1275 20.8624 12.0578 21.3949 12.6425C21.9274 13.2272 22.7903 13.4641 23.5641 13.3033C22.9555 14.4661 23.538 16.0898 24.7465 16.6006C25.1595 16.7766 25.6486 16.8266 26.0529 16.6288C26.4571 16.431 26.731 15.9441 26.5941 15.5181C27.1896 16.005 27.9699 16.3441 28.7242 16.1876C29.4762 16.0289 30.1087 15.2312 29.8827 14.4944C29.7849 14.1792 29.5545 13.9162 29.4697 13.5967C29.3675 13.2207 29.4849 12.8251 29.461 12.4404Z" fill="#FABC29"/>
<path d="M27.0332 15.6445C26.631 15.2033 26.3202 14.6794 26.1268 14.1143C26.3485 14.5251 26.3202 15.0598 26.0529 15.4423C26.1268 15.6923 26.1681 15.9923 25.992 16.1835C25.7681 16.4291 25.3247 16.3031 25.14 16.027C24.9552 15.751 24.953 15.3945 24.9574 15.062C24.8748 15.3511 24.4162 15.3684 24.2249 15.1337C24.0336 14.899 24.0597 14.5555 24.1597 14.273C24.0858 14.4121 23.9141 14.4903 23.7598 14.4556C23.5881 13.9187 23.7641 13.2883 24.1901 12.9188C24.0075 12.8645 23.8119 12.9036 23.6272 12.9428C23.4402 12.9841 23.2468 13.0253 23.062 12.9775C22.8773 12.9297 22.7078 12.7623 22.7295 12.5732C22.7512 12.3841 23.0338 12.2668 23.1446 12.4211C22.7795 12.1798 22.3991 11.919 22.2122 11.5256C22.0253 11.13 22.1318 10.5627 22.5382 10.404C22.8338 10.2888 23.1707 10.4236 23.4229 10.6149C23.675 10.8083 23.8815 11.0583 24.1488 11.2278C23.8619 10.8127 23.6815 10.3214 23.6293 9.81934C23.6141 9.67806 23.6141 9.52591 23.6924 9.40854C23.7771 9.28464 23.9489 9.23031 24.088 9.28247C24.2271 9.33464 24.3205 9.48896 24.3032 9.63676C24.2401 9.37376 24.1749 9.10424 24.2184 8.83689C24.2619 8.56954 24.4379 8.30654 24.7031 8.24785C24.9661 8.18917 25.2769 8.42391 25.2247 8.68909C25.6269 8.51955 26.1203 8.74777 26.3376 9.12597C26.5571 9.502 26.5376 9.98019 26.3919 10.391C26.2463 10.8018 25.9855 11.1604 25.729 11.5125C25.8551 11.4473 25.9855 11.38 26.1289 11.3691C26.2702 11.3582 26.4289 11.4191 26.4876 11.5495C26.5463 11.6799 26.455 11.8668 26.3137 11.8625C26.6876 11.5256 27.1657 11.3082 27.6657 11.2495C27.9091 11.2213 28.2004 11.2539 28.3243 11.4647C28.4351 11.656 28.3482 11.9125 28.183 12.0625C28.0178 12.2103 27.7982 12.2776 27.5852 12.3385C27.7287 12.232 27.9091 12.1581 28.0852 12.1842C28.2634 12.2103 28.4286 12.3581 28.4308 12.5363C28.4329 12.7145 28.2243 12.8754 28.0634 12.795C28.233 13.0232 28.3568 13.284 28.4264 13.5579C27.9004 13.8122 27.244 13.7709 26.7528 13.4557C27.357 13.66 27.9373 13.9361 28.4764 14.273C28.7394 14.4382 29.0241 14.6816 28.9872 14.9902C28.9568 15.2511 28.6872 15.4315 28.4242 15.451C28.1612 15.4706 27.9069 15.3684 27.6657 15.2641C27.783 15.3619 27.8265 15.538 27.7656 15.6793C27.7048 15.8184 27.5461 15.9097 27.394 15.8901C27.257 15.8684 27.1353 15.7553 27.0332 15.6445Z" fill="#FC7935"/>
<path d="M27.3114 11.8535C26.9484 12.0317 26.5724 12.186 26.192 12.3186C26.5637 12.0013 27.0179 11.7839 27.4983 11.6948C27.4679 11.7731 27.3875 11.8165 27.3114 11.8535Z" fill="#FFD7BB"/>
<path d="M26.6615 12.4598C26.9506 12.3794 27.2483 12.2968 27.5483 12.3273C27.5505 12.362 27.5244 12.3946 27.4918 12.4099C27.4592 12.4251 27.4222 12.4272 27.3874 12.4294C27.1462 12.4381 26.9027 12.449 26.6615 12.4598Z" fill="#FFD7BB"/>
<path d="M27.7874 13.0991C27.3353 13.0469 26.8941 12.9143 26.4898 12.71C26.9484 12.6709 27.4222 12.8122 27.7874 13.0991Z" fill="#FFD7BB"/>
<path d="M27.2375 13.486C27.0984 13.2686 26.8723 13.11 26.6223 13.0513C26.6789 13.173 26.7571 13.286 26.8636 13.3686C26.9701 13.449 27.1049 13.499 27.2375 13.486Z" fill="#FFD7BB"/>
<path d="M28.1308 14.6876C27.8026 14.4398 27.4483 14.2225 27.0745 14.0508C27.3309 14.3768 27.6722 14.6333 28.0547 14.7876C28.0982 14.805 28.1656 14.8115 28.1764 14.7659C28.1851 14.7333 28.1569 14.7072 28.1308 14.6876Z" fill="#FFD7BB"/>
<path d="M26.7875 14.1401C26.9158 14.4205 27.0571 14.7161 27.3114 14.89C27.1679 14.5662 27.0245 14.4031 26.7875 14.1401Z" fill="#FFD7BB"/>
<path d="M26.4984 14.2031C26.5571 14.4596 26.6571 14.7096 26.7897 14.9378C26.8288 15.0073 26.8853 15.0812 26.9658 15.0834C26.9897 14.9747 26.931 14.8661 26.8745 14.7726C26.7332 14.5379 26.6549 14.4227 26.4984 14.2031Z" fill="#FFD7BB"/>
<path d="M25.8768 14.0552C25.6986 14.2986 25.6116 14.6051 25.6334 14.9029C25.7855 14.6138 25.8899 14.3834 25.8768 14.0552Z" fill="#FFD7BB"/>
<path d="M25.4095 13.8965C25.2682 14.066 25.153 14.2594 25.0748 14.4659C25.0639 14.4942 25.0552 14.529 25.0791 14.5485C25.1074 14.5724 25.1487 14.5442 25.1747 14.5181C25.2834 14.4073 25.3921 14.2964 25.479 14.1682C25.566 14.0399 25.6312 13.8943 25.6421 13.7378C25.5464 13.7487 25.4703 13.8226 25.4095 13.8965Z" fill="#FFD7BB"/>
<path d="M25.3986 13.4404C25.1509 13.4969 24.9335 13.6665 24.8205 13.8925C25.0965 13.8099 25.2791 13.7034 25.3986 13.4404Z" fill="#FFD7BB"/>
<path d="M24.3662 13.3818C24.5944 13.334 24.8118 13.234 24.9943 13.0884C24.7596 13.1166 24.5205 13.2014 24.3662 13.3818Z" fill="#FFD7BB"/>
<path d="M24.6009 12.5623C24.3814 12.5276 24.1619 12.4928 23.9423 12.4558C23.8402 12.4384 23.7337 12.4232 23.6402 12.3797C23.5446 12.3363 23.4598 12.2624 23.425 12.1624C23.4185 12.1407 23.4185 12.1081 23.4402 12.1015C23.4511 12.0972 23.462 12.1037 23.4729 12.1081C23.7489 12.2341 24.0228 12.3624 24.2988 12.4884L24.6009 12.5623Z" fill="#FFD7BB"/>
<path d="M24.3423 12.3166C23.9206 12.0884 23.4924 11.8558 23.1468 11.5211C23.0838 11.4602 23.0229 11.3624 23.0773 11.295C23.1077 11.2581 23.1598 11.2516 23.2077 11.2581C23.3316 11.2755 23.4337 11.3624 23.5272 11.4472C23.7924 11.6906 24.0749 12.0753 24.3423 12.3166Z" fill="#FFD7BB"/>
<path d="M24.0032 11.6667C23.9532 11.6167 23.8989 11.5581 23.901 11.4863C24.0314 11.5276 24.1445 11.6167 24.2336 11.7211C24.3227 11.8254 24.3923 11.9471 24.4553 12.0688C24.2966 11.9428 24.1467 11.808 24.0032 11.6667Z" fill="#FFD7BB"/>
<path d="M24.2727 10.443C24.264 10.3996 24.264 10.3409 24.3031 10.3213C24.3488 10.2974 24.3988 10.3452 24.427 10.3887C24.59 10.6495 24.6553 10.956 24.7183 11.256C24.5292 11.0082 24.3357 10.7495 24.2727 10.443Z" fill="#FFD7BB"/>
<path d="M24.677 9.72558C24.677 9.70167 24.677 9.67558 24.69 9.65602C24.7161 9.61907 24.7748 9.62342 24.8096 9.65167C24.8422 9.6821 24.8574 9.72775 24.8683 9.77122C24.9683 10.1646 25.003 10.5733 24.9726 10.9754C24.8857 10.5559 24.6944 10.1538 24.677 9.72558Z" fill="#FFD7BB"/>
<path d="M25.2595 11.0362C25.2269 10.608 25.2704 10.1733 25.3856 9.76028C25.4247 9.75376 25.4638 9.77984 25.4834 9.81679C25.503 9.85157 25.5051 9.89287 25.5073 9.93416C25.5117 10.2559 25.3812 10.734 25.2595 11.0362Z" fill="#FFD7BB"/>
<path d="M25.7355 10.4754C25.7594 10.4362 25.8051 10.3928 25.8442 10.4145C25.8746 10.4319 25.8768 10.4754 25.8725 10.5123C25.8355 10.7557 25.6703 10.9622 25.4834 11.1209C25.5247 10.8905 25.6116 10.671 25.7355 10.4754Z" fill="#FFD7BB"/>
<path d="M16.95 12.7967C17.0195 12.3838 16.7913 11.9382 16.4153 11.7556C16.0393 11.5708 15.548 11.6643 15.2655 11.973C14.7351 11.7556 14.0787 12.1034 13.8679 12.6381C13.657 13.1728 13.8374 13.8074 14.2222 14.2335C14.6069 14.6595 15.1611 14.9007 15.7241 15.0138C16.3001 15.1311 17.013 15.0703 17.3151 14.566C17.6412 14.0204 17.2912 13.3314 16.95 12.7967Z" fill="#FABC29"/>
<path d="M15.2024 13.8033C15.3698 14.0859 15.5893 14.338 15.8479 14.538C15.9371 14.6075 16.0392 14.6749 16.1544 14.6749C16.3631 14.6749 16.5 14.4619 16.5978 14.2772C16.6609 14.1554 16.7239 14.0316 16.7435 13.8968C16.7608 13.762 16.7261 13.6099 16.6174 13.5251C16.5109 13.4403 16.3261 13.4534 16.2588 13.5729C16.4913 13.2208 16.5717 12.7709 16.4761 12.3601C16.2783 12.2623 16.0588 12.1949 15.8393 12.221C15.6197 12.2471 15.4067 12.3862 15.3372 12.5948C15.1741 12.434 14.9807 12.284 14.7525 12.2644C14.5243 12.2449 14.2699 12.4079 14.2678 12.6361C14.3025 12.6448 14.3351 12.6557 14.3699 12.6644C14.2982 12.9252 14.3525 13.2165 14.5112 13.4338C14.672 13.6512 14.9329 13.7903 15.2024 13.8033Z" fill="#FC7935"/>
<path d="M15.6741 13.4144C15.5915 13.1275 15.6545 12.8014 15.8393 12.5688C15.8849 12.708 15.8523 12.8601 15.8045 12.997C15.7545 13.1361 15.6915 13.2709 15.6741 13.4144Z" fill="#FFD7BB"/>
<path d="M15.8588 13.462C15.824 13.2403 15.9501 13.0034 16.1522 12.9077C16.1479 13.2033 16.1022 13.3011 15.8588 13.462Z" fill="#FFD7BB"/>
<path d="M15.3546 13.6838C15.3415 13.349 15.172 13.0252 14.9046 12.8252C14.809 12.9621 14.8612 13.1621 14.9764 13.2838C15.0916 13.4034 15.1959 13.6294 15.3546 13.6838Z" fill="#FFD7BB"/>
<path d="M15.6654 13.8617C15.8632 13.8074 16.0805 13.8291 16.2609 13.9248C16.0219 13.9987 15.8327 14.0465 15.6654 13.8617Z" fill="#FFD7BB"/>
<path d="M19.3844 16.8874C19.041 16.9418 18.7519 17.2395 18.7063 17.583C18.6606 17.9264 18.8649 18.2894 19.1822 18.4307C19.1518 18.9067 19.5996 19.3283 20.0734 19.3544C20.5494 19.3805 21.0015 19.0697 21.2341 18.6545C21.4688 18.2394 21.5101 17.7395 21.4514 17.2678C21.3906 16.7831 21.1558 16.2397 20.6777 16.1332C20.1647 16.0202 19.7148 16.4766 19.3844 16.8874Z" fill="#FABC29"/>
<path d="M20.6363 17.9962C20.8146 17.7897 20.9537 17.5506 21.0428 17.2941C21.0732 17.205 21.0993 17.1072 21.0689 17.0181C21.0145 16.8529 20.8102 16.8007 20.6385 16.7746C20.5255 16.7573 20.4125 16.7399 20.2994 16.7616C20.1886 16.7833 20.0799 16.8507 20.0408 16.9572C20.0017 17.0637 20.0603 17.205 20.1734 17.2268C19.8343 17.1376 19.4604 17.192 19.1627 17.3746C19.1366 17.555 19.1431 17.7462 19.2214 17.9114C19.2996 18.0766 19.4648 18.207 19.6474 18.207C19.5626 18.3766 19.4974 18.57 19.543 18.7548C19.5887 18.9395 19.7821 19.096 19.9625 19.0373C19.9604 19.0091 19.9604 18.9786 19.9582 18.9504C20.1821 18.9373 20.3972 18.8178 20.5255 18.6352C20.6581 18.4548 20.6994 18.2114 20.6363 17.9962Z" fill="#FC7935"/>
<path d="M20.2082 17.7285C20.0038 17.8698 19.7321 17.9046 19.4996 17.822C19.5974 17.7503 19.7256 17.735 19.8474 17.7372C19.9669 17.7372 20.0886 17.7524 20.2082 17.7285Z" fill="#FFD7BB"/>
<path d="M20.1973 17.57C20.0321 17.6548 19.8126 17.62 19.6843 17.4852C19.9147 17.4113 20.0038 17.42 20.1973 17.57Z" fill="#FFD7BB"/>
<path d="M20.5038 17.9067C20.2451 18.0045 20.0343 18.2241 19.9473 18.4871C20.0799 18.5262 20.2234 18.4327 20.2886 18.3088C20.3538 18.1893 20.5016 18.0458 20.5038 17.9067Z" fill="#FFD7BB"/>
<path d="M20.5625 17.618C20.4668 17.4767 20.4277 17.3007 20.4538 17.1333C20.5755 17.3007 20.6625 17.4354 20.5625 17.618Z" fill="#FFD7BB"/>
<path d="M37.0729 12.6882C36.7294 12.7425 36.4403 13.0403 36.3947 13.3838C36.3491 13.7272 36.5534 14.0902 36.8707 14.2314C36.8403 14.7075 37.288 15.1291 37.7619 15.1552C38.2379 15.1813 38.69 14.8705 38.9226 14.4553C39.1573 14.0402 39.1986 13.5402 39.1399 13.0686C39.079 12.5839 38.8443 12.0405 38.3661 11.934C37.8532 11.821 37.4054 12.2774 37.0729 12.6882Z" fill="#FABC29"/>
<path d="M38.327 13.797C38.5052 13.5905 38.6443 13.3514 38.7335 13.0949C38.7639 13.0058 38.79 12.908 38.7595 12.8189C38.7052 12.6537 38.5009 12.6037 38.3292 12.5754C38.2162 12.558 38.1031 12.5407 37.9901 12.5624C37.8793 12.5841 37.7706 12.6515 37.7315 12.758C37.6923 12.8645 37.7532 13.0058 37.864 13.0275C37.525 12.9384 37.1511 12.9928 36.8533 13.1753C36.8273 13.3557 36.8338 13.547 36.912 13.7122C36.9903 13.8774 37.1555 14.0078 37.338 14.0078C37.2533 14.1773 37.1881 14.3708 37.2337 14.5555C37.2794 14.7403 37.4728 14.8968 37.6532 14.8381C37.651 14.8099 37.651 14.7794 37.6489 14.7512C37.8727 14.7381 38.0879 14.6186 38.2162 14.436C38.3466 14.2556 38.3879 14.0122 38.327 13.797Z" fill="#FC7935"/>
<path d="M37.8967 13.5293C37.6923 13.6706 37.4207 13.7054 37.1881 13.6228C37.2859 13.551 37.4141 13.5358 37.5358 13.538C37.6554 13.538 37.7793 13.5532 37.8967 13.5293Z" fill="#FFD7BB"/>
<path d="M37.8858 13.3708C37.7206 13.4556 37.501 13.4208 37.3728 13.286C37.6054 13.2121 37.6945 13.2208 37.8858 13.3708Z" fill="#FFD7BB"/>
<path d="M38.1923 13.71C37.9336 13.8078 37.7228 14.0273 37.6358 14.2903C37.7684 14.3294 37.9119 14.236 37.9771 14.1121C38.0423 13.9904 38.1901 13.8469 38.1923 13.71Z" fill="#FFD7BB"/>
<path d="M38.2509 13.4183C38.1553 13.277 38.1162 13.101 38.1423 12.9336C38.264 13.101 38.3509 13.2357 38.2509 13.4183Z" fill="#FFD7BB"/>
<path d="M42.4568 11.6447C42.6546 11.2643 42.6154 10.8013 42.3633 10.5579C42.1133 10.3166 41.6721 10.3166 41.3309 10.5579C40.9614 10.2558 40.2984 10.4688 39.9419 10.9383C39.5855 11.4078 39.5224 12.0446 39.6963 12.5185C39.8702 12.9923 40.2528 13.3205 40.6831 13.5313C41.1244 13.7465 41.7373 13.8161 42.1612 13.3922C42.6176 12.9336 42.5611 12.2163 42.4568 11.6447Z" fill="#FABC29"/>
<path d="M40.6614 12.2885C40.7049 12.5863 40.8027 12.8645 40.9505 13.1036C41.0027 13.1862 41.0635 13.2666 41.1592 13.2883C41.3331 13.3253 41.52 13.1492 41.6613 12.9906C41.7547 12.8862 41.8504 12.7797 41.9112 12.6537C41.9721 12.5276 41.9938 12.3776 41.933 12.2776C41.8721 12.1776 41.7156 12.1581 41.62 12.2581C41.933 11.9646 42.1525 11.5517 42.2112 11.1452C42.0807 11.017 41.9199 10.9126 41.7286 10.8996C41.5374 10.8866 41.3135 10.9778 41.1852 11.1648C41.1048 10.9822 40.994 10.8061 40.8114 10.7453C40.6288 10.6866 40.3615 10.7953 40.2832 11.0104C40.3093 11.0257 40.3332 11.0409 40.3593 11.0561C40.2115 11.2908 40.1571 11.5777 40.2158 11.8125C40.2702 12.0494 40.4419 12.2298 40.6614 12.2885Z" fill="#FC7935"/>
<path d="M41.1852 12.0057C41.2135 11.7188 41.3765 11.421 41.6091 11.2319C41.6004 11.3732 41.5221 11.5102 41.4352 11.634C41.3483 11.7536 41.2483 11.871 41.1852 12.0057Z" fill="#FFD7BB"/>
<path d="M41.3222 12.0837C41.3678 11.8663 41.5526 11.6642 41.7547 11.6099C41.6504 11.8881 41.5808 11.9728 41.3222 12.0837Z" fill="#FFD7BB"/>
<path d="M40.8288 12.2014C40.9309 11.8819 40.9005 11.5428 40.744 11.3037C40.6179 11.4167 40.594 11.6167 40.6484 11.7515C40.7027 11.8906 40.7158 12.121 40.8288 12.2014Z" fill="#FFD7BB"/>
<path d="M41.0266 12.4297C41.2092 12.4123 41.383 12.4731 41.5026 12.597C41.2787 12.6231 41.1048 12.634 41.0266 12.4297Z" fill="#FFD7BB"/>
<path d="M9.0882 13.9444C9.64681 13.4749 9.95545 12.5772 9.49248 12.0099C9.15123 11.5926 8.54915 11.523 8.01228 11.4861C7.64495 11.46 7.21893 11.4556 6.97549 11.7317C6.78422 11.9469 6.77117 12.2599 6.76682 12.5468C6.75813 13.0771 6.77335 13.6683 7.14286 14.0509C7.63843 14.566 8.54046 14.4052 9.0882 13.9444Z" fill="#FABC29"/>
<path d="M7.76668 13.7466C8.15358 13.7292 8.52309 13.5053 8.71871 13.1728C8.91433 12.8402 8.92954 12.4077 8.75783 12.0599C8.73609 12.0142 8.70784 11.9686 8.66654 11.9403C8.57091 11.873 8.42961 11.9208 8.35571 12.0121C8.28181 12.1034 8.25791 12.2229 8.23834 12.3381C8.23182 12.1294 8.01012 12.0034 7.81885 11.923C7.60149 11.8338 7.31893 11.7599 7.15591 11.9295C7.03854 12.0534 7.04505 12.249 7.09287 12.412C7.18851 12.7402 7.42108 13.025 7.72104 13.1836C7.55802 13.1641 7.35588 13.2032 7.29936 13.3575C7.25807 13.4705 7.3211 13.601 7.41891 13.6683C7.52106 13.7357 7.64714 13.7509 7.76668 13.7466Z" fill="#FC7935"/>
<path d="M8.43397 12.4902C8.46223 12.6706 8.43831 12.8576 8.36876 13.0249C8.3405 12.8445 8.36442 12.6576 8.43397 12.4902Z" fill="#FFD7BB"/>
<path d="M7.72539 12.1646C7.69279 12.4797 7.86449 12.8079 8.14271 12.9601C8.07316 12.6645 7.92753 12.3884 7.72539 12.1646Z" fill="#FFD7BB"/>
<path d="M7.5015 12.6968C7.58409 12.9076 7.77755 13.0728 7.99925 13.125C7.88622 12.9337 7.70798 12.7815 7.5015 12.6968Z" fill="#FFD7BB"/>
<path d="M8.09705 13.3188C7.96229 13.2405 7.76885 13.2948 7.69495 13.4318C7.83623 13.4644 7.99272 13.4209 8.09705 13.3188Z" fill="#FFD7BB"/>
<path d="M4.75411 16.8897C4.79106 16.3311 4.45849 15.6834 3.89989 15.6377C3.48691 15.6051 3.12828 15.9007 2.82181 16.1768C2.61097 16.3659 2.38275 16.5984 2.40449 16.881C2.42187 17.1005 2.58706 17.2744 2.74356 17.4309C3.03265 17.7178 3.36737 18.0243 3.77383 18.0243C4.32591 18.0221 4.71716 17.4374 4.75411 16.8897Z" fill="#FABC29"/>
<path d="M3.94115 17.5158C4.13677 17.2919 4.21067 16.9703 4.13025 16.6833C4.04983 16.3986 3.81944 16.1595 3.53687 16.0704C3.49992 16.0595 3.46081 16.0487 3.42168 16.0574C3.33474 16.0747 3.28474 16.1769 3.29561 16.266C3.30648 16.3551 3.36081 16.4312 3.41298 16.5051C3.29343 16.3986 3.10652 16.4529 2.96089 16.516C2.7957 16.5877 2.60442 16.7051 2.61311 16.8855C2.61746 17.0159 2.73048 17.1159 2.84568 17.1767C3.07825 17.2985 3.35864 17.3224 3.60643 17.2398C3.50862 17.3202 3.42167 17.4528 3.47818 17.5658C3.51948 17.6484 3.62382 17.6832 3.71511 17.6658C3.8064 17.6462 3.88029 17.5854 3.94115 17.5158Z" fill="#FC7935"/>
<path d="M3.60211 16.4766C3.71731 16.557 3.8086 16.67 3.86294 16.7982C3.74992 16.7178 3.65862 16.6048 3.60211 16.4766Z" fill="#FFD7BB"/>
<path d="M3.04565 16.6963C3.20215 16.8832 3.47385 16.9615 3.70643 16.8897C3.50646 16.7702 3.27605 16.7028 3.04565 16.6963Z" fill="#FFD7BB"/>
<path d="M3.22171 17.1025C3.38255 17.1699 3.57601 17.1503 3.72164 17.0547C3.55645 17.0156 3.37603 17.0329 3.22171 17.1025Z" fill="#FFD7BB"/>
<path d="M3.88033 17.105C3.76513 17.1376 3.6934 17.2745 3.72817 17.3875C3.82381 17.3267 3.8825 17.2158 3.88033 17.105Z" fill="#FFD7BB"/>
<path d="M37.1402 16.9202C37.8814 16.7637 38.6291 17.444 38.6856 18.2004C38.7443 18.9547 38.2357 19.6763 37.5684 20.0349C37.964 19.998 38.3704 20.2501 38.5095 20.6218C38.6508 20.9935 38.5139 21.4521 38.1922 21.6847C38.1074 22.3454 37.5597 22.9171 36.9033 23.0301C36.2469 23.1431 35.5383 22.7867 35.2383 22.1933C34.9384 21.5999 35.071 20.8174 35.5513 20.3566C35.0818 20.6218 34.5776 20.8565 34.0385 20.8739C33.4995 20.8913 32.9235 20.6435 32.6931 20.1566C32.4627 19.6698 32.73 18.9721 33.2604 18.8808C33.0039 18.6221 32.8409 18.2613 32.8626 17.8961C32.8844 17.5332 33.1061 17.1767 33.4408 17.0332C33.8994 16.8376 34.4493 17.0702 34.7732 17.4484C35.0971 17.8266 35.2449 18.3222 35.384 18.8003C35.4905 18.4526 35.4905 18.0809 35.5079 17.7179C35.5252 17.3549 35.5644 16.9789 35.7426 16.6594C35.9208 16.342 36.2664 16.0921 36.6294 16.1334C36.9924 16.1747 37.2945 16.5898 37.1402 16.9202Z" fill="#FABC29"/>
<path d="M36.0839 18.433C36.0904 18.2548 35.8535 18.1417 35.6904 18.2156C35.5274 18.2917 35.4514 18.4852 35.4514 18.6656C35.4514 18.846 35.5122 19.0177 35.5535 19.1916C35.5948 19.3655 35.6165 19.5567 35.5405 19.7198C35.1362 19.1242 34.7319 18.5308 34.3255 17.9353C34.2494 18.1678 34.2624 18.4308 34.3646 18.6525C34.3602 18.3548 33.9299 18.1983 33.6951 18.3808C33.4604 18.5634 33.4517 18.9438 33.6212 19.1872C33.7929 19.4307 34.0929 19.5546 34.3885 19.5959C33.9994 19.6415 33.6582 19.9567 33.5821 20.3414C34.3624 20.5522 35.2188 20.474 35.9491 20.1197C35.9121 20.2718 35.8122 20.4001 35.7165 20.524C35.6231 20.65 35.5274 20.7826 35.5057 20.9391C35.484 21.0934 35.5579 21.2738 35.7078 21.3217C35.8578 21.3695 36.0426 21.2043 35.9752 21.063C35.9252 21.2108 35.8904 21.3695 35.9295 21.5216C35.9708 21.6716 36.1078 21.8042 36.2621 21.7955C36.4164 21.7868 36.5425 21.589 36.4512 21.4629C36.4295 21.7238 36.7012 21.9498 36.9598 21.9194C37.2185 21.889 37.4228 21.6477 37.4532 21.389C37.4836 21.1304 37.3619 20.8696 37.175 20.687C37.3098 20.7457 37.451 20.8065 37.5988 20.7935C37.7445 20.7826 37.8944 20.6739 37.8988 20.5261C37.9031 20.3414 37.701 20.2327 37.5271 20.1653C37.1511 20.0197 36.7751 19.8762 36.399 19.7306C36.8685 19.6524 37.3467 19.4524 37.6141 19.0568C37.8488 18.7134 37.8836 18.2439 37.7032 17.8679C37.5945 17.6331 37.4836 17.3962 37.3011 17.2115C37.1207 17.0289 36.8511 16.9093 36.6012 16.9745C36.3512 17.0376 36.1643 17.331 36.2664 17.5657C35.9426 17.6896 35.8339 18.1874 36.0839 18.433Z" fill="#FC7935"/>
<path d="M35.8078 18.6309C35.8882 18.9091 35.8904 19.2112 35.8143 19.4894C35.7665 19.2069 35.7643 18.9134 35.8078 18.6309Z" fill="#FFD7BB"/>
<path d="M36.0426 19.4395C36.0817 19.2091 36.0708 18.9721 36.0947 18.7374C36.1187 18.5048 36.186 18.2636 36.3512 18.0962C36.3165 18.557 36.2121 19.0113 36.0426 19.4395Z" fill="#FFD7BB"/>
<path d="M36.3947 19.3178C36.4468 19.1635 36.499 19.007 36.5881 18.8679C36.6773 18.7309 36.8055 18.6114 36.9642 18.5723C37.0011 18.6049 37.0098 18.6614 36.9946 18.7092C36.9794 18.757 36.9489 18.7961 36.9163 18.8353C36.762 19.0135 36.586 19.1765 36.3947 19.3178Z" fill="#FFD7BB"/>
<path d="M36.6772 19.4066C36.825 19.2523 37.0272 19.1501 37.2402 19.124C37.0598 19.3283 36.9489 19.4001 36.6772 19.4066Z" fill="#FFD7BB"/>
<path d="M37.3271 20.4565C37.1315 20.2087 36.8511 20.0304 36.5446 19.9565C36.6425 20.0848 36.7468 20.2087 36.8772 20.3043C37.0076 20.4 37.1663 20.463 37.3271 20.4565Z" fill="#FFD7BB"/>
<path d="M36.6077 20.5935C36.5121 20.4217 36.3751 20.2739 36.2121 20.1631C36.2882 20.3435 36.3925 20.513 36.5207 20.6608C36.5425 20.6847 36.5751 20.7108 36.6033 20.6956C36.6381 20.676 36.6272 20.6261 36.6077 20.5935Z" fill="#FFD7BB"/>
<path d="M36.0382 20.3369C35.9469 20.5282 35.9252 20.7542 35.9752 20.9607C36.0904 20.7151 36.0795 20.6043 36.0382 20.3369Z" fill="#FFD7BB"/>
<path d="M35.4188 19.848C35.3275 19.7611 35.2514 19.6632 35.1731 19.5633C34.9949 19.3329 34.8167 19.1025 34.6385 18.8721C34.6189 19.0764 34.7102 19.2807 34.858 19.422C35.0058 19.5654 35.2166 19.8241 35.4188 19.848Z" fill="#FFD7BB"/>
<path d="M34.695 19.9894C34.8232 20.0394 34.9667 20.0416 35.0949 19.9959C34.9775 19.9264 34.8493 19.872 34.7189 19.8372C34.6841 19.8286 34.6406 19.822 34.6167 19.8481C34.5928 19.872 34.5972 19.9112 34.6167 19.9372C34.6341 19.9633 34.6645 19.9785 34.695 19.9894Z" fill="#FFD7BB"/>
<path d="M34.7971 20.2542C35.0319 20.3107 35.2883 20.2607 35.484 20.1194C35.2492 20.0781 34.9993 20.126 34.7971 20.2542Z" fill="#FFD7BB"/>
<path d="M8.90998 16.9547C7.49933 16.7482 5.99522 17.3785 5.15623 18.5327C5.07363 18.4957 4.99104 18.4588 4.91061 18.424C5.1171 18.3675 5.23448 18.1523 5.30838 17.9502C5.38011 17.748 5.43879 17.5263 5.59963 17.3872C5.72135 17.2807 5.88437 17.2372 6.04087 17.1981C6.60817 17.0525 7.1733 16.9069 7.7406 16.7612L8.90998 16.9547Z" fill="#20233B"/>
<path d="M8.38831 16.3027C8.72522 16.4657 9.06864 16.6243 9.43815 16.683C10.0989 16.7917 10.764 16.5765 11.4009 16.3635C9.65115 16.3005 7.91665 15.8201 6.38212 14.9746C6.30387 15.0116 6.22562 15.0485 6.14737 15.0855C6.87551 15.5245 7.62322 15.931 8.38831 16.3027Z" fill="#20233B"/>
<path d="M33.6256 10.6101C32.5823 11.2947 31.2542 11.5295 30.0392 11.2426C30.0609 11.3686 30.0848 11.4969 30.1066 11.623C30.6978 11.5643 31.2999 11.6469 31.8541 11.862C32.1302 11.9685 32.4366 12.1098 32.7062 11.9859C32.8344 11.9273 32.93 11.8164 33.0213 11.7077C33.4256 11.2295 33.8277 10.7492 34.232 10.271L33.6256 10.6101Z" fill="#20233B"/>
<path d="M30.8108 14.9854C29.2849 15.9287 27.8461 17.0111 26.5158 18.2131C26.7723 17.987 27.2114 18.0175 27.4353 18.2761C27.5635 17.6523 28.2047 17.2937 28.7785 17.0155C29.4002 16.7155 30.024 16.4134 30.6456 16.1134L30.8108 14.9854Z" fill="#20233B"/>
<path d="M39.5485 10.9668C39.6376 12.823 40.1071 14.6619 40.9201 16.3355C40.8266 16.2616 40.731 16.1877 40.6158 16.1594C40.5006 16.1312 40.3615 16.1638 40.3028 16.2659C40.0985 15.014 39.6094 13.8098 38.8834 12.7687L39.5485 10.9668Z" fill="#20233B"/>
</svg>
