<svg xmlns="http://www.w3.org/2000/svg" width="95.558" height="47.591" viewBox="0 0 95.558 47.591">
    <defs>
        <style>
            .prefix__cls-1{fill:red}.prefix__cls-2{fill:#4d4d4d}
        </style>
    </defs>
    <g id="prefix__Logo_Reddi_Final_1_" data-name="Logo_Reddi_Final(1)" transform="translate(-51.8 -56.2)">
        <path id="prefix__Path_1952" d="M78.956 108.141v-2.388a.539.539 0 00-.546-.546H61.9a.848.848 0 00-.273.034h-.171c-.1 0-.2.034-.341.034a.205.205 0 00-.136.034 6.4 6.4 0 00-1.058.2c-.034 0-.1.034-.136.034l-.409.1c-.068.034-.136.034-.171.068-.136.034-.239.1-.375.136a.485.485 0 01-.2.068c-.136.068-.239.1-.375.171l-.2.1c-.136.068-.239.136-.375.2a.745.745 0 00-.171.1 3.572 3.572 0 00-.375.273c-.034.034-.1.068-.136.1a6.514 6.514 0 00-1.433 1.6v-3.035a.539.539 0 00-.546-.546h-2.7a.5.5 0 00-.512.512l.068 16.751a.511.511 0 00.546.512h2.7a.5.5 0 00.512-.512v-5.39a8.3 8.3 0 012.354-6.175 6.24 6.24 0 014.879-1.979H78.41a.486.486 0 00.546-.456z" class="prefix__cls-1" data-name="Path 1952" transform="translate(0 -32.086)"/>
        <path id="prefix__Path_1953" d="M263.649 83.9a2.116 2.116 0 00-2.149 2.218 2.15 2.15 0 104.3 0 2.136 2.136 0 00-2.151-2.218z" data-name="Path 1953" transform="translate(-138.159 -18.25)"/>
        <path id="prefix__Path_1954" d="M87.809 147.268a.423.423 0 00-.409.444v2.49a.423.423 0 00.444.409l14.363-.068a.423.423 0 00.409-.444v-2.49a.423.423 0 00-.443-.409z" class="prefix__cls-1" data-name="Path 1954" transform="translate(-23.455 -59.955)"/>
        <path id="prefix__Path_1955" d="M96.545 129.943a.452.452 0 00.444-.444v-2.456a.452.452 0 00-.444-.443l-8.8.034a.452.452 0 00-.444.444v2.456a.452.452 0 00.444.444z" class="prefix__cls-1" data-name="Path 1955" transform="translate(-23.389 -46.383)"/>
        <path id="prefix__Path_1956" d="M262.882 122.831h2.49a.612.612 0 00.614-.614l-.068-16.1a.612.612 0 00-.614-.614h-2.49a.612.612 0 00-.614.614l.068 16.1a.612.612 0 00.614.614z" data-name="Path 1956" transform="translate(-138.621 -32.481)"/>
        <path id="prefix__Path_1957" d="M174.3 107.7a5.048 5.048 0 01.716.443 3.129 3.129 0 00-.716-.443z" class="prefix__cls-1" data-name="Path 1957" transform="translate(-80.708 -33.93)"/>
        <path id="prefix__Path_1959" d="M168.7 105.6h.034c.171.034.375.1.546.136a4.652 4.652 0 01-.58-.136z" class="prefix__cls-1" data-name="Path 1959" transform="translate(-77.019 -32.547)"/>
        <path id="prefix__Path_1960" d="M189.6 91.7v.239z" class="prefix__cls-1" data-name="Path 1960" transform="translate(-90.789 -23.389)"/>
        <path id="prefix__Path_1961" d="M154.683 101.364V85.978a.488.488 0 00-.478-.478h-2.8a.5.5 0 00-.478.512V94.2a7.2 7.2 0 00-.785-.648 8.155 8.155 0 00-.716-.444c-.034-.034-.1-.034-.136-.068a5.444 5.444 0 00-.785-.341c-.034 0-.1-.034-.136-.034-.068-.034-.136-.034-.2-.068-.2-.068-.375-.1-.58-.171h-.034a.125.125 0 01-.1-.034 6.9 6.9 0 00-.887-.136h-.068c-.2-.034-.409-.034-.614-.068h-.409a7.132 7.132 0 00-.853.034h-.171l-.819.1a.125.125 0 00-.1.034 5.784 5.784 0 00-.819.171 8.46 8.46 0 00-6.209 8.6c.034 5.322 3.753 9.211 8.734 9.211a10 10 0 006.755-2.388 8.325 8.325 0 002.763-6.414.188.188 0 01-.075-.172zm-9.075 5.459a5.316 5.316 0 01-5.39-5.629 5.426 5.426 0 015.356-5.766c3.139 0 5.356 2.32 5.356 5.7 0 3.272-2.183 5.694-5.322 5.694z" class="prefix__cls-1" data-name="Path 1961" transform="translate(-55.803 -19.304)"/>
        <path id="prefix__Path_1962" d="M235 107.7a5.048 5.048 0 01.716.443 4.086 4.086 0 00-.716-.443z" data-name="Path 1962" transform="translate(-120.7 -33.93)"/>
        <path id="prefix__Path_1963" d="M215.185 101.532V86.078a.488.488 0 00-.478-.478h-2.8a.5.5 0 00-.478.512v8.154a7.2 7.2 0 00-.785-.648 8.165 8.165 0 00-.716-.444c-.034-.034-.1-.034-.136-.068a5.441 5.441 0 00-.785-.341c-.034 0-.1-.034-.136-.034a6.224 6.224 0 00-.853-.239.125.125 0 01-.1-.034 6.9 6.9 0 00-.887-.136h-.068a8.4 8.4 0 00-.887-.068h-.136a7.132 7.132 0 00-.853.034h-.2a2.985 2.985 0 00-.546.068c-.1 0-.171.034-.273.034a.125.125 0 00-.1.034h-.068a1.713 1.713 0 01-.409.068c-.136.034-.239.068-.375.1a8.46 8.46 0 00-6.209 8.6c.034 5.322 3.753 9.211 8.734 9.211a10 10 0 006.755-2.388 8.433 8.433 0 002.789-6.483zm-9.075 5.356a5.316 5.316 0 01-5.39-5.629 5.426 5.426 0 015.356-5.766c3.139 0 5.356 2.32 5.356 5.7.001 3.273-2.183 5.695-5.322 5.695z" data-name="Path 1963" transform="translate(-95.597 -19.37)"/>
        <path id="prefix__Path_1964" d="M219.2 105.034c.136 0 .273-.034.375-.034h.034c-.136 0-.273.034-.409.034z" data-name="Path 1964" transform="translate(-110.29 -32.152)"/>
        <path id="prefix__Path_1965" d="M216.5 105.468c.1-.034.239-.034.341-.068h.068a1.466 1.466 0 00-.409.068z" data-name="Path 1965" transform="translate(-108.512 -32.415)"/>
        <path id="prefix__Path_1966" d="M103.161 174.5a2.518 2.518 0 00-1.91.785 2.807 2.807 0 000 3.821 2.648 2.648 0 001.979.751 2.457 2.457 0 002.252-1.194l-.58-.341a1.7 1.7 0 01-1.638.887 2.147 2.147 0 01-1.4-.443 1.819 1.819 0 01-.648-1.228l4.5-.034a1.887 1.887 0 01.034-.307 2.687 2.687 0 00-.716-1.876 2.406 2.406 0 00-1.873-.821zm-1.979 2.388a1.933 1.933 0 01.614-1.228 1.985 1.985 0 011.331-.478 1.817 1.817 0 011.228.444 1.938 1.938 0 01.614 1.262z" class="prefix__cls-2" data-name="Path 1966" transform="translate(-32.086 -77.941)"/>
        <path id="prefix__Path_1967" d="M122.161 174.4a2.518 2.518 0 00-1.91.785 2.807 2.807 0 000 3.821 2.648 2.648 0 001.979.751 2.457 2.457 0 002.252-1.194l-.58-.341a1.7 1.7 0 01-1.638.887 2.147 2.147 0 01-1.4-.444 1.819 1.819 0 01-.648-1.228l4.5-.034a1.886 1.886 0 01.034-.307 2.687 2.687 0 00-.716-1.876 2.358 2.358 0 00-1.873-.82zm-1.945 2.388a1.934 1.934 0 01.614-1.228 1.985 1.985 0 011.331-.478 1.817 1.817 0 011.228.444 1.938 1.938 0 01.614 1.262z" class="prefix__cls-2" data-name="Path 1967" transform="translate(-44.604 -77.875)"/>
        <path id="prefix__Path_1968" d="M142.229 174.3a2.215 2.215 0 00-2.047 1.126v-.989h-.682l.034 7.164h.682v-3.036a2.305 2.305 0 002.081 1.126 2.679 2.679 0 002.661-2.7 2.683 2.683 0 00-.785-1.91 2.886 2.886 0 00-1.944-.781zm1.4 4.128a1.954 1.954 0 01-1.433.58 2.011 2.011 0 01-1.433-.58 2.071 2.071 0 01-.58-1.433 1.954 1.954 0 01.58-1.433 1.858 1.858 0 011.433-.614 1.981 1.981 0 012.013 2.013 2.092 2.092 0 01-.581 1.467z" class="prefix__cls-2" data-name="Path 1968" transform="translate(-57.781 -77.809)"/>
        <path id="prefix__Path_1969" d="M169.961 178.9l-1.945-4.3h-.716l2.32 5.151-.136.307c-.307.785-.785 1.126-1.4 1.058v.648a1.812 1.812 0 001.228-.375 2.91 2.91 0 00.853-1.194l2.149-5.595h-.714z" class="prefix__cls-2" data-name="Path 1969" transform="translate(-76.096 -78.007)"/>
        <path id="prefix__Path_1970" d="M187.1 174.1a2.7 2.7 0 00-1.91 4.606 2.6 2.6 0 001.91.751 2.683 2.683 0 001.91-.785 2.718 2.718 0 000-3.821 2.8 2.8 0 00-1.91-.751zm1.433 4.128a1.954 1.954 0 01-1.433.58 2.011 2.011 0 01-1.433-.58 2.071 2.071 0 01-.58-1.433 1.954 1.954 0 01.58-1.433 1.858 1.858 0 011.433-.614 2.051 2.051 0 011.433 3.48z" class="prefix__cls-2" data-name="Path 1970" transform="translate(-87.363 -77.678)"/>
        <path id="prefix__Path_1971" d="M208.319 174.4v2.7a2.062 2.062 0 01-.444 1.433 1.54 1.54 0 01-1.194.478 1.269 1.269 0 01-1.023-.375 1.478 1.478 0 01-.375-1.058v-3.139h-.683v3.139a2.212 2.212 0 00.546 1.535 1.978 1.978 0 001.467.58 1.841 1.841 0 001.706-.921v.785H209l-.034-5.117z" class="prefix__cls-2" data-name="Path 1971" transform="translate(-100.671 -77.875)"/>
        <path id="prefix__Path_1972" d="M235.084 167.9a3.669 3.669 0 102.627 1.058 3.607 3.607 0 00-2.627-1.058zm2.149 5.834a2.858 2.858 0 01-2.115.887 2.905 2.905 0 01-2.149-.853 3.074 3.074 0 01-.887-2.149 2.959 2.959 0 01.853-2.149 2.858 2.858 0 012.115-.887 2.808 2.808 0 012.149.887 3.055 3.055 0 01.887 2.115 2.905 2.905 0 01-.852 2.149z" class="prefix__cls-2" data-name="Path 1972" transform="translate(-118.328 -73.593)"/>
        <path id="prefix__Path_1973" d="M262.806 168.1v5.834l-3.992-5.8h-.614l.034 7.164h.716l-.034-5.834 4.026 5.8h.614l-.034-7.164z" class="prefix__cls-2" data-name="Path 1973" transform="translate(-135.985 -73.725)"/>
        <path id="prefix__Path_1974" d="M90.726 171.013H89.8l-2.418 2.287-.034-4.3H86.7l.034 7.164h.648v-2.456l2.559 2.456.921-.034-2.762-2.63z" class="prefix__cls-2" data-name="Path 1974" transform="translate(-22.994 -74.318)"/>
        <path id="prefix__Path_1975" d="M299.485 73a47.548 47.548 0 01-16.785 8.051l11.668-.068a5.1 5.1 0 005.117-5.049z" class="prefix__cls-1" data-name="Path 1975" transform="translate(-152.127 -11.069)"/>
        <path id="prefix__Path_1976" d="M305.168 61.006v2.9a.584.584 0 00.785.546c.034-.034.068-.034.136-.068-.034.034-.068.034-.136.068h.034a.259.259 0 01.136-.068c.58-.273 1.126-.58 1.706-.887.1-.068.2-.1.307-.171.512-.273.989-.58 1.5-.887l.2-.1.034-.034c.068-.034.136-.1.2-.136a3.72 3.72 0 001.74-3.173v-.307a2.1 2.1 0 01-.034.444c0-.136.034-.273.034-.444V57.56a.587.587 0 00-.478-.58.592.592 0 01.478.58V56.4c-.444.341-.887.648-1.331.989.034-.034.1-.068.136-.1-.034.034-.1.068-.136.1-.171.136-.341.239-.546.375-.341.239-.682.478-1.058.716a2.421 2.421 0 00-.478.341c-.478.307-.955.614-1.467.887-.034.034-.068.034-.1.068-.409.239-.853.478-1.3.716-.136.068-.307.171-.443.239l.068.273z" class="prefix__cls-1" data-name="Path 1976" transform="translate(-166.885 -.132)"/>
        <path id="prefix__Path_1979" d="M285.234 61.454v1.876c.614-.2 1.194-.409 1.808-.614.068-.034.136-.034.171-.068a8.886 8.886 0 00.853-.341c.307-.136.614-.239.887-.375.2-.1.409-.171.614-.273l1.331-.614.409-.2c.239-.1.478-.239.682-.341l-.034-4.3c-.785.478-1.6.887-2.422 1.3a.746.746 0 00.171-.1.746.746 0 00-.171.1c-.375.2-.785.375-1.194.58l-.716.307c-.375.171-.751.307-1.16.478-.136.034-.239.1-.375.136a1.369 1.369 0 00-.887 1.262v.785z" class="prefix__cls-1" data-name="Path 1979" transform="translate(-153.774)"/>
        <path id="prefix__Path_1980" d="M290.871 75.1c-.068.034-.136.034-.171.068.034-.034.1-.034.171-.068z" class="prefix__cls-1" data-name="Path 1980" transform="translate(-157.398 -12.452)"/>
        <path id="prefix__Path_1981" d="M302.341 69.934c.034 0 .034-.034.068-.034l-.409.2a3.173 3.173 0 01.341-.166z" class="prefix__cls-1" data-name="Path 1981" transform="translate(-164.843 -9.026)"/>
    </g>
</svg>
